<svg width="16" height="8" viewBox="0 0 16 8" fill="none" xmlns="http://www.w3.org/2000/svg">
<path d="M1.01246 0C0.112259 4.76837e-07 -0.338563 1.07659 0.297975 1.70623C0.297975 1.70623 0.297975 1.70623 0.297975 1.70623L3.4273 4.80165C5.58289 6.93388 6.66069 8 8.00001 8C9.33932 8 10.4171 6.93388 12.5727 4.80164L15.702 1.70623C16.3386 1.07659 15.8877 0 14.9875 0C14.7196 0 14.4625 0.105304 14.2731 0.292744L11.1437 3.38815C10.0255 4.49423 9.32762 5.17859 8.75443 5.61118C8.23709 6.00162 8.05648 6.00117 8.00276 6.00103L8.00001 6.00103L7.99725 6.00103C7.94353 6.00117 7.76292 6.00162 7.24558 5.61118C6.67239 5.1786 5.97446 4.49423 4.85627 3.38816L1.72695 0.292743C1.72695 0.292743 1.72695 0.292743 1.72695 0.292743C1.53745 0.105303 1.28044 4.76837e-07 1.01246 0Z" fill="#000"/>
</svg>
